<?xml version="1.0" encoding="UTF-8" standalone="no"?>
<!DOCTYPE svg PUBLIC "-//W3C//DTD SVG 1.1//EN"
 "http://www.w3.org/Graphics/SVG/1.1/DTD/svg11.dtd">
<!-- Generated by graphviz version 2.49.3 (20211027.1534)
 -->
<!-- Title: Graphical Class Hierarchy Pages: 1 -->
<svg width="248pt" height="137pt"
 viewBox="0.00 0.00 248.00 137.00" xmlns="http://www.w3.org/2000/svg" xmlns:xlink="http://www.w3.org/1999/xlink">
<g id="graph0" class="graph" transform="scale(1 1) rotate(0) translate(4 133)">
<title>Graphical Class Hierarchy</title>
<polygon fill="white" stroke="transparent" points="-4,4 -4,-133 244,-133 244,4 -4,4"/>
<!-- Node10 -->
<g id="node1" class="node">
<title>Node10</title>
<g id="a_node1"><a xlink:title=" ">
<polygon fill="white" stroke="#bfbfbf" points="0,-55 0,-74 92,-74 92,-55 0,-55"/>
<text text-anchor="middle" x="46" y="-62" font-family="Helvetica,sans-Serif" font-size="10.00">std::runtime_error</text>
</a>
</g>
</g>
<!-- Node0 -->
<g id="node2" class="node">
<title>Node0</title>
<g id="a_node2"><a xlink:href="structekisocket_1_1errors_1_1_http_client_error.html" target="_top" xlink:title=" ">
<polygon fill="white" stroke="black" points="138,-98.5 138,-128.5 230,-128.5 230,-98.5 138,-98.5"/>
<text text-anchor="start" x="146" y="-116.5" font-family="Helvetica,sans-Serif" font-size="10.00">ekisocket::errors::</text>
<text text-anchor="middle" x="184" y="-105.5" font-family="Helvetica,sans-Serif" font-size="10.00">HttpClientError</text>
</a>
</g>
</g>
<!-- Node10&#45;&gt;Node0 -->
<g id="edge1" class="edge">
<title>Node10&#45;&gt;Node0</title>
<path fill="none" stroke="midnightblue" d="M83.05,-77.49C100.94,-83.93 122.65,-91.76 141.26,-98.46"/>
<polygon fill="midnightblue" stroke="midnightblue" points="84.14,-74.16 73.55,-74.06 81.77,-80.75 84.14,-74.16"/>
</g>
<!-- Node12 -->
<g id="node3" class="node">
<title>Node12</title>
<g id="a_node3"><a xlink:href="structekisocket_1_1errors_1_1_ssl_client_error.html" target="_top" xlink:title=" ">
<polygon fill="white" stroke="black" points="138,-49.5 138,-79.5 230,-79.5 230,-49.5 138,-49.5"/>
<text text-anchor="start" x="146" y="-67.5" font-family="Helvetica,sans-Serif" font-size="10.00">ekisocket::errors::</text>
<text text-anchor="middle" x="184" y="-56.5" font-family="Helvetica,sans-Serif" font-size="10.00">SslClientError</text>
</a>
</g>
</g>
<!-- Node10&#45;&gt;Node12 -->
<g id="edge2" class="edge">
<title>Node10&#45;&gt;Node12</title>
<path fill="none" stroke="midnightblue" d="M102.47,-64.5C114.26,-64.5 126.57,-64.5 137.91,-64.5"/>
<polygon fill="midnightblue" stroke="midnightblue" points="102.29,-61 92.29,-64.5 102.29,-68 102.29,-61"/>
</g>
<!-- Node13 -->
<g id="node4" class="node">
<title>Node13</title>
<g id="a_node4"><a xlink:href="structekisocket_1_1errors_1_1_web_socket_client_error.html" target="_top" xlink:title=" ">
<polygon fill="white" stroke="black" points="128,-0.5 128,-30.5 240,-30.5 240,-0.5 128,-0.5"/>
<text text-anchor="start" x="136" y="-18.5" font-family="Helvetica,sans-Serif" font-size="10.00">ekisocket::errors::</text>
<text text-anchor="middle" x="184" y="-7.5" font-family="Helvetica,sans-Serif" font-size="10.00">WebSocketClientError</text>
</a>
</g>
</g>
<!-- Node10&#45;&gt;Node13 -->
<g id="edge3" class="edge">
<title>Node10&#45;&gt;Node13</title>
<path fill="none" stroke="midnightblue" d="M83.05,-51.51C100.94,-45.07 122.65,-37.24 141.26,-30.54"/>
<polygon fill="midnightblue" stroke="midnightblue" points="81.77,-48.25 73.55,-54.94 84.14,-54.84 81.77,-48.25"/>
</g>
</g>
</svg>
