<?xml version="1.0" encoding="UTF-8" standalone="no"?>
<!DOCTYPE svg PUBLIC "-//W3C//DTD SVG 1.1//EN"
 "http://www.w3.org/Graphics/SVG/1.1/DTD/svg11.dtd">
<!-- Generated by graphviz version 2.49.3 (20211027.1534)
 -->
<!-- Title: ekisocket::util::create_boundary Pages: 1 -->
<svg width="245pt" height="39pt"
 viewBox="0.00 0.00 245.00 39.00" xmlns="http://www.w3.org/2000/svg" xmlns:xlink="http://www.w3.org/1999/xlink">
<g id="graph0" class="graph" transform="scale(1 1) rotate(0) translate(4 35)">
<title>ekisocket::util::create_boundary</title>
<polygon fill="white" stroke="transparent" points="-4,4 -4,-35 241,-35 241,4 -4,4"/>
<!-- Node1 -->
<g id="node1" class="node">
<title>Node1</title>
<g id="a_node1"><a xlink:title="Create a random boundary string that complies with RFC 2046.">
<polygon fill="#bfbfbf" stroke="black" points="0,-0.5 0,-30.5 107,-30.5 107,-0.5 0,-0.5"/>
<text text-anchor="start" x="8" y="-18.5" font-family="Helvetica,sans-Serif" font-size="10.00">ekisocket::util::create</text>
<text text-anchor="middle" x="53.5" y="-7.5" font-family="Helvetica,sans-Serif" font-size="10.00">_boundary</text>
</a>
</g>
</g>
<!-- Node2 -->
<g id="node2" class="node">
<title>Node2</title>
<g id="a_node2"><a xlink:href="namespaceekisocket_1_1util.html#aea58c9fe06b3fe44bd4dd1f1100e0e0c" target="_top" xlink:title="Generates a random 32&#45;bit unsigned integer within a range (defaults to [0, UINT32_MAX]).">
<polygon fill="white" stroke="black" points="143,-0.5 143,-30.5 237,-30.5 237,-0.5 143,-0.5"/>
<text text-anchor="start" x="151" y="-18.5" font-family="Helvetica,sans-Serif" font-size="10.00">ekisocket::util::get</text>
<text text-anchor="middle" x="190" y="-7.5" font-family="Helvetica,sans-Serif" font-size="10.00">_random_number</text>
</a>
</g>
</g>
<!-- Node1&#45;&gt;Node2 -->
<g id="edge1" class="edge">
<title>Node1&#45;&gt;Node2</title>
<path fill="none" stroke="midnightblue" d="M107.27,-15.5C115.64,-15.5 124.33,-15.5 132.78,-15.5"/>
<polygon fill="midnightblue" stroke="midnightblue" points="132.92,-19 142.92,-15.5 132.92,-12 132.92,-19"/>
</g>
</g>
</svg>
