<?xml version="1.0" encoding="UTF-8" standalone="no"?>
<!DOCTYPE svg PUBLIC "-//W3C//DTD SVG 1.1//EN"
 "http://www.w3.org/Graphics/SVG/1.1/DTD/svg11.dtd">
<!-- Generated by graphviz version 2.49.3 (20211027.1534)
 -->
<!-- Title: ekisocket::util::base64_encode Pages: 1 -->
<svg width="274pt" height="88pt"
 viewBox="0.00 0.00 274.00 88.00" xmlns="http://www.w3.org/2000/svg" xmlns:xlink="http://www.w3.org/1999/xlink">
<g id="graph0" class="graph" transform="scale(1 1) rotate(0) translate(4 84)">
<title>ekisocket::util::base64_encode</title>
<polygon fill="white" stroke="transparent" points="-4,4 -4,-84 270,-84 270,4 -4,4"/>
<!-- Node1 -->
<g id="node1" class="node">
<title>Node1</title>
<g id="a_node1"><a xlink:title="Encodes an input string of a certain length into a base64 encoded string.">
<polygon fill="#bfbfbf" stroke="black" points="154,-24.5 154,-54.5 266,-54.5 266,-24.5 154,-24.5"/>
<text text-anchor="start" x="162" y="-42.5" font-family="Helvetica,sans-Serif" font-size="10.00">ekisocket::util::base64</text>
<text text-anchor="middle" x="210" y="-31.5" font-family="Helvetica,sans-Serif" font-size="10.00">_encode</text>
</a>
</g>
</g>
<!-- Node2 -->
<g id="node2" class="node">
<title>Node2</title>
<g id="a_node2"><a xlink:href="namespaceekisocket_1_1util.html#ad952bd42ca90249b45908eee0ff7c655" target="_top" xlink:title=" ">
<polygon fill="white" stroke="black" points="3,-49.5 3,-79.5 115,-79.5 115,-49.5 3,-49.5"/>
<text text-anchor="start" x="11" y="-67.5" font-family="Helvetica,sans-Serif" font-size="10.00">ekisocket::util::base64</text>
<text text-anchor="middle" x="59" y="-56.5" font-family="Helvetica,sans-Serif" font-size="10.00">_encode</text>
</a>
</g>
</g>
<!-- Node1&#45;&gt;Node2 -->
<g id="edge1" class="edge">
<title>Node1&#45;&gt;Node2</title>
<path fill="none" stroke="midnightblue" d="M144.06,-50.4C134.48,-52 124.69,-53.65 115.33,-55.22"/>
<polygon fill="midnightblue" stroke="midnightblue" points="144.66,-53.84 153.94,-48.74 143.5,-46.94 144.66,-53.84"/>
</g>
<!-- Node3 -->
<g id="node3" class="node">
<title>Node3</title>
<g id="a_node3"><a xlink:href="namespaceekisocket_1_1util.html#a209decb3c1d60b6ccf88efaa2dbd31f5" target="_top" xlink:title="Computes the &quot;Sec&#45;WebSocket&#45;Accept&quot; header found in the handshake response to a WebSocket connection,...">
<polygon fill="white" stroke="black" points="0,-0.5 0,-30.5 118,-30.5 118,-0.5 0,-0.5"/>
<text text-anchor="start" x="8" y="-18.5" font-family="Helvetica,sans-Serif" font-size="10.00">ekisocket::util::compute</text>
<text text-anchor="middle" x="59" y="-7.5" font-family="Helvetica,sans-Serif" font-size="10.00">_accept</text>
</a>
</g>
</g>
<!-- Node1&#45;&gt;Node3 -->
<g id="edge2" class="edge">
<title>Node1&#45;&gt;Node3</title>
<path fill="none" stroke="midnightblue" d="M143.94,-29.02C135.34,-27.63 126.56,-26.22 118.08,-24.86"/>
<polygon fill="midnightblue" stroke="midnightblue" points="143.51,-32.5 153.94,-30.63 144.63,-25.59 143.51,-32.5"/>
</g>
</g>
</svg>
