<?xml version="1.0" encoding="UTF-8" standalone="no"?>
<!DOCTYPE svg PUBLIC "-//W3C//DTD SVG 1.1//EN"
 "http://www.w3.org/Graphics/SVG/1.1/DTD/svg11.dtd">
<!-- Generated by graphviz version 2.49.3 (20211027.1534)
 -->
<!-- Title: ekisocket::ssl::Client::Impl::~Impl Pages: 1 -->
<svg width="536pt" height="88pt"
 viewBox="0.00 0.00 536.00 88.00" xmlns="http://www.w3.org/2000/svg" xmlns:xlink="http://www.w3.org/1999/xlink">
<g id="graph0" class="graph" transform="scale(1 1) rotate(0) translate(4 84)">
<title>ekisocket::ssl::Client::Impl::~Impl</title>
<polygon fill="white" stroke="transparent" points="-4,4 -4,-84 532,-84 532,4 -4,4"/>
<!-- Node1 -->
<g id="node1" class="node">
<title>Node1</title>
<g id="a_node1"><a xlink:title=" ">
<polygon fill="#bfbfbf" stroke="black" points="0,-24.5 0,-54.5 105,-54.5 105,-24.5 0,-24.5"/>
<text text-anchor="start" x="8" y="-42.5" font-family="Helvetica,sans-Serif" font-size="10.00">ekisocket::ssl::Client</text>
<text text-anchor="middle" x="52.5" y="-31.5" font-family="Helvetica,sans-Serif" font-size="10.00">::Impl::~Impl</text>
</a>
</g>
</g>
<!-- Node2 -->
<g id="node2" class="node">
<title>Node2</title>
<g id="a_node2"><a xlink:href="structekisocket_1_1ssl_1_1_client_1_1_impl.html#a46ba82fc56a9509242f7f69d01cf3fcc" target="_top" xlink:title=" ">
<polygon fill="white" stroke="black" points="141,-24.5 141,-54.5 246,-54.5 246,-24.5 141,-24.5"/>
<text text-anchor="start" x="149" y="-42.5" font-family="Helvetica,sans-Serif" font-size="10.00">ekisocket::ssl::Client</text>
<text text-anchor="middle" x="193.5" y="-31.5" font-family="Helvetica,sans-Serif" font-size="10.00">::Impl::close</text>
</a>
</g>
</g>
<!-- Node1&#45;&gt;Node2 -->
<g id="edge1" class="edge">
<title>Node1&#45;&gt;Node2</title>
<path fill="none" stroke="midnightblue" d="M105.26,-39.5C113.49,-39.5 122.08,-39.5 130.51,-39.5"/>
<polygon fill="midnightblue" stroke="midnightblue" points="130.7,-43 140.7,-39.5 130.7,-36 130.7,-43"/>
</g>
<!-- Node3 -->
<g id="node3" class="node">
<title>Node3</title>
<g id="a_node3"><a xlink:href="structekisocket_1_1ssl_1_1_client_1_1_impl.html#aa407bae92cb5dd07a2f76278c6d1cb1c" target="_top" xlink:title=" ">
<polygon fill="white" stroke="black" points="282,-49.5 282,-79.5 387,-79.5 387,-49.5 282,-49.5"/>
<text text-anchor="start" x="290" y="-67.5" font-family="Helvetica,sans-Serif" font-size="10.00">ekisocket::ssl::Client</text>
<text text-anchor="middle" x="334.5" y="-56.5" font-family="Helvetica,sans-Serif" font-size="10.00">::Impl::receive</text>
</a>
</g>
</g>
<!-- Node2&#45;&gt;Node3 -->
<g id="edge2" class="edge">
<title>Node2&#45;&gt;Node3</title>
<path fill="none" stroke="midnightblue" d="M246.26,-48.81C254.58,-50.31 263.27,-51.87 271.79,-53.4"/>
<polygon fill="midnightblue" stroke="midnightblue" points="271.24,-56.86 281.7,-55.18 272.48,-49.97 271.24,-56.86"/>
</g>
<!-- Node5 -->
<g id="node5" class="node">
<title>Node5</title>
<g id="a_node5"><a xlink:href="structekisocket_1_1ssl_1_1_client_1_1_impl.html#a2ab9bbb3d8ce4dd6d0a068eab0bc0f2f" target="_top" xlink:title=" ">
<polygon fill="white" stroke="black" points="282,-0.5 282,-30.5 387,-30.5 387,-0.5 282,-0.5"/>
<text text-anchor="start" x="290" y="-18.5" font-family="Helvetica,sans-Serif" font-size="10.00">ekisocket::ssl::Client</text>
<text text-anchor="middle" x="334.5" y="-7.5" font-family="Helvetica,sans-Serif" font-size="10.00">::Impl::set_blocking</text>
</a>
</g>
</g>
<!-- Node2&#45;&gt;Node5 -->
<g id="edge4" class="edge">
<title>Node2&#45;&gt;Node5</title>
<path fill="none" stroke="midnightblue" d="M246.26,-30.56C254.58,-29.13 263.27,-27.63 271.79,-26.15"/>
<polygon fill="midnightblue" stroke="midnightblue" points="272.44,-29.59 281.7,-24.44 271.25,-22.7 272.44,-29.59"/>
</g>
<!-- Node4 -->
<g id="node4" class="node">
<title>Node4</title>
<g id="a_node4"><a xlink:href="structekisocket_1_1ssl_1_1_client_1_1_impl.html#aaa7cae4b21045a61710cd43198a8889b" target="_top" xlink:title=" ">
<polygon fill="white" stroke="black" points="423,-49.5 423,-79.5 528,-79.5 528,-49.5 423,-49.5"/>
<text text-anchor="start" x="431" y="-67.5" font-family="Helvetica,sans-Serif" font-size="10.00">ekisocket::ssl::Client</text>
<text text-anchor="middle" x="475.5" y="-56.5" font-family="Helvetica,sans-Serif" font-size="10.00">::Impl::query</text>
</a>
</g>
</g>
<!-- Node3&#45;&gt;Node4 -->
<g id="edge3" class="edge">
<title>Node3&#45;&gt;Node4</title>
<path fill="none" stroke="midnightblue" d="M387.26,-64.5C395.49,-64.5 404.08,-64.5 412.51,-64.5"/>
<polygon fill="midnightblue" stroke="midnightblue" points="412.7,-68 422.7,-64.5 412.7,-61 412.7,-68"/>
</g>
</g>
</svg>
