<?xml version="1.0" encoding="UTF-8" standalone="no"?>
<!DOCTYPE svg PUBLIC "-//W3C//DTD SVG 1.1//EN"
 "http://www.w3.org/Graphics/SVG/1.1/DTD/svg11.dtd">
<!-- Generated by graphviz version 2.49.3 (20211027.1534)
 -->
<!-- Title: ekisocket::ssl::Client::Impl::query Pages: 1 -->
<svg width="536pt" height="137pt"
 viewBox="0.00 0.00 536.00 137.00" xmlns="http://www.w3.org/2000/svg" xmlns:xlink="http://www.w3.org/1999/xlink">
<g id="graph0" class="graph" transform="scale(1 1) rotate(0) translate(4 133)">
<title>ekisocket::ssl::Client::Impl::query</title>
<polygon fill="white" stroke="transparent" points="-4,4 -4,-133 532,-133 532,4 -4,4"/>
<!-- Node1 -->
<g id="node1" class="node">
<title>Node1</title>
<g id="a_node1"><a xlink:title=" ">
<polygon fill="#bfbfbf" stroke="black" points="423,-49.5 423,-79.5 528,-79.5 528,-49.5 423,-49.5"/>
<text text-anchor="start" x="431" y="-67.5" font-family="Helvetica,sans-Serif" font-size="10.00">ekisocket::ssl::Client</text>
<text text-anchor="middle" x="475.5" y="-56.5" font-family="Helvetica,sans-Serif" font-size="10.00">::Impl::query</text>
</a>
</g>
</g>
<!-- Node2 -->
<g id="node2" class="node">
<title>Node2</title>
<g id="a_node2"><a xlink:href="structekisocket_1_1ssl_1_1_client_1_1_impl.html#ac79fee67782f4d3ac88ee115fb3e6ece" target="_top" xlink:title=" ">
<polygon fill="white" stroke="black" points="282,-98.5 282,-128.5 387,-128.5 387,-98.5 282,-98.5"/>
<text text-anchor="start" x="290" y="-116.5" font-family="Helvetica,sans-Serif" font-size="10.00">ekisocket::ssl::Client</text>
<text text-anchor="middle" x="334.5" y="-105.5" font-family="Helvetica,sans-Serif" font-size="10.00">::Impl::connect</text>
</a>
</g>
</g>
<!-- Node1&#45;&gt;Node2 -->
<g id="edge1" class="edge">
<title>Node1&#45;&gt;Node2</title>
<path fill="none" stroke="midnightblue" d="M421.92,-83.04C407.56,-88.1 392.18,-93.52 378.44,-98.36"/>
<polygon fill="midnightblue" stroke="midnightblue" points="423.39,-86.23 431.66,-79.6 421.07,-79.63 423.39,-86.23"/>
</g>
<!-- Node3 -->
<g id="node3" class="node">
<title>Node3</title>
<g id="a_node3"><a xlink:href="structekisocket_1_1ssl_1_1_client_1_1_impl.html#aa407bae92cb5dd07a2f76278c6d1cb1c" target="_top" xlink:title=" ">
<polygon fill="white" stroke="black" points="282,-49.5 282,-79.5 387,-79.5 387,-49.5 282,-49.5"/>
<text text-anchor="start" x="290" y="-67.5" font-family="Helvetica,sans-Serif" font-size="10.00">ekisocket::ssl::Client</text>
<text text-anchor="middle" x="334.5" y="-56.5" font-family="Helvetica,sans-Serif" font-size="10.00">::Impl::receive</text>
</a>
</g>
</g>
<!-- Node1&#45;&gt;Node3 -->
<g id="edge2" class="edge">
<title>Node1&#45;&gt;Node3</title>
<path fill="none" stroke="midnightblue" d="M412.56,-64.5C404.12,-64.5 395.53,-64.5 387.3,-64.5"/>
<polygon fill="midnightblue" stroke="midnightblue" points="412.74,-68 422.74,-64.5 412.74,-61 412.74,-68"/>
</g>
<!-- Node6 -->
<g id="node6" class="node">
<title>Node6</title>
<g id="a_node6"><a xlink:href="structekisocket_1_1ssl_1_1_client_1_1_impl.html#a2742b86583f097107d38070c418fa7c7" target="_top" xlink:title=" ">
<polygon fill="white" stroke="black" points="282,-0.5 282,-30.5 387,-30.5 387,-0.5 282,-0.5"/>
<text text-anchor="start" x="290" y="-18.5" font-family="Helvetica,sans-Serif" font-size="10.00">ekisocket::ssl::Client</text>
<text text-anchor="middle" x="334.5" y="-7.5" font-family="Helvetica,sans-Serif" font-size="10.00">::Impl::send</text>
</a>
</g>
</g>
<!-- Node1&#45;&gt;Node6 -->
<g id="edge5" class="edge">
<title>Node1&#45;&gt;Node6</title>
<path fill="none" stroke="midnightblue" d="M421.92,-45.96C407.56,-40.9 392.18,-35.48 378.44,-30.64"/>
<polygon fill="midnightblue" stroke="midnightblue" points="421.07,-49.37 431.66,-49.4 423.39,-42.77 421.07,-49.37"/>
</g>
<!-- Node4 -->
<g id="node4" class="node">
<title>Node4</title>
<g id="a_node4"><a xlink:href="structekisocket_1_1ssl_1_1_client_1_1_impl.html#a46ba82fc56a9509242f7f69d01cf3fcc" target="_top" xlink:title=" ">
<polygon fill="white" stroke="black" points="141,-49.5 141,-79.5 246,-79.5 246,-49.5 141,-49.5"/>
<text text-anchor="start" x="149" y="-67.5" font-family="Helvetica,sans-Serif" font-size="10.00">ekisocket::ssl::Client</text>
<text text-anchor="middle" x="193.5" y="-56.5" font-family="Helvetica,sans-Serif" font-size="10.00">::Impl::close</text>
</a>
</g>
</g>
<!-- Node3&#45;&gt;Node4 -->
<g id="edge3" class="edge">
<title>Node3&#45;&gt;Node4</title>
<path fill="none" stroke="midnightblue" d="M271.56,-64.5C263.12,-64.5 254.53,-64.5 246.3,-64.5"/>
<polygon fill="midnightblue" stroke="midnightblue" points="271.74,-68 281.74,-64.5 271.74,-61 271.74,-68"/>
</g>
<!-- Node5 -->
<g id="node5" class="node">
<title>Node5</title>
<g id="a_node5"><a xlink:href="structekisocket_1_1ssl_1_1_client_1_1_impl.html#ad1ef952e1b74a17cf6f732397ffa0be9" target="_top" xlink:title=" ">
<polygon fill="white" stroke="black" points="0,-49.5 0,-79.5 105,-79.5 105,-49.5 0,-49.5"/>
<text text-anchor="start" x="8" y="-67.5" font-family="Helvetica,sans-Serif" font-size="10.00">ekisocket::ssl::Client</text>
<text text-anchor="middle" x="52.5" y="-56.5" font-family="Helvetica,sans-Serif" font-size="10.00">::Impl::~Impl</text>
</a>
</g>
</g>
<!-- Node4&#45;&gt;Node5 -->
<g id="edge4" class="edge">
<title>Node4&#45;&gt;Node5</title>
<path fill="none" stroke="midnightblue" d="M130.56,-64.5C122.12,-64.5 113.53,-64.5 105.3,-64.5"/>
<polygon fill="midnightblue" stroke="midnightblue" points="130.74,-68 140.74,-64.5 130.74,-61 130.74,-68"/>
</g>
</g>
</svg>
