<?xml version="1.0" encoding="UTF-8" standalone="no"?>
<!DOCTYPE svg PUBLIC "-//W3C//DTD SVG 1.1//EN"
 "http://www.w3.org/Graphics/SVG/1.1/DTD/svg11.dtd">
<!-- Generated by graphviz version 2.49.3 (20211027.1534)
 -->
<!-- Title: ekisocket::ssl::Client::Impl::set_blocking Pages: 1 -->
<svg width="395pt" height="39pt"
 viewBox="0.00 0.00 395.00 39.00" xmlns="http://www.w3.org/2000/svg" xmlns:xlink="http://www.w3.org/1999/xlink">
<g id="graph0" class="graph" transform="scale(1 1) rotate(0) translate(4 35)">
<title>ekisocket::ssl::Client::Impl::set_blocking</title>
<polygon fill="white" stroke="transparent" points="-4,4 -4,-35 391,-35 391,4 -4,4"/>
<!-- Node1 -->
<g id="node1" class="node">
<title>Node1</title>
<g id="a_node1"><a xlink:title=" ">
<polygon fill="#bfbfbf" stroke="black" points="282,-0.5 282,-30.5 387,-30.5 387,-0.5 282,-0.5"/>
<text text-anchor="start" x="290" y="-18.5" font-family="Helvetica,sans-Serif" font-size="10.00">ekisocket::ssl::Client</text>
<text text-anchor="middle" x="334.5" y="-7.5" font-family="Helvetica,sans-Serif" font-size="10.00">::Impl::set_blocking</text>
</a>
</g>
</g>
<!-- Node2 -->
<g id="node2" class="node">
<title>Node2</title>
<g id="a_node2"><a xlink:href="structekisocket_1_1ssl_1_1_client_1_1_impl.html#a46ba82fc56a9509242f7f69d01cf3fcc" target="_top" xlink:title=" ">
<polygon fill="white" stroke="black" points="141,-0.5 141,-30.5 246,-30.5 246,-0.5 141,-0.5"/>
<text text-anchor="start" x="149" y="-18.5" font-family="Helvetica,sans-Serif" font-size="10.00">ekisocket::ssl::Client</text>
<text text-anchor="middle" x="193.5" y="-7.5" font-family="Helvetica,sans-Serif" font-size="10.00">::Impl::close</text>
</a>
</g>
</g>
<!-- Node1&#45;&gt;Node2 -->
<g id="edge1" class="edge">
<title>Node1&#45;&gt;Node2</title>
<path fill="none" stroke="midnightblue" d="M271.56,-15.5C263.12,-15.5 254.53,-15.5 246.3,-15.5"/>
<polygon fill="midnightblue" stroke="midnightblue" points="271.74,-19 281.74,-15.5 271.74,-12 271.74,-19"/>
</g>
<!-- Node3 -->
<g id="node3" class="node">
<title>Node3</title>
<g id="a_node3"><a xlink:href="structekisocket_1_1ssl_1_1_client_1_1_impl.html#ad1ef952e1b74a17cf6f732397ffa0be9" target="_top" xlink:title=" ">
<polygon fill="white" stroke="black" points="0,-0.5 0,-30.5 105,-30.5 105,-0.5 0,-0.5"/>
<text text-anchor="start" x="8" y="-18.5" font-family="Helvetica,sans-Serif" font-size="10.00">ekisocket::ssl::Client</text>
<text text-anchor="middle" x="52.5" y="-7.5" font-family="Helvetica,sans-Serif" font-size="10.00">::Impl::~Impl</text>
</a>
</g>
</g>
<!-- Node2&#45;&gt;Node3 -->
<g id="edge2" class="edge">
<title>Node2&#45;&gt;Node3</title>
<path fill="none" stroke="midnightblue" d="M130.56,-15.5C122.12,-15.5 113.53,-15.5 105.3,-15.5"/>
<polygon fill="midnightblue" stroke="midnightblue" points="130.74,-19 140.74,-15.5 130.74,-12 130.74,-19"/>
</g>
</g>
</svg>
