<?xml version="1.0" encoding="UTF-8" standalone="no"?>
<!DOCTYPE svg PUBLIC "-//W3C//DTD SVG 1.1//EN"
 "http://www.w3.org/Graphics/SVG/1.1/DTD/svg11.dtd">
<!-- Generated by graphviz version 2.49.3 (20211027.1534)
 -->
<!-- Title: ekisocket::ws::Client::Impl::~Impl Pages: 1 -->
<svg width="255pt" height="99pt"
 viewBox="0.00 0.00 255.00 98.50" xmlns="http://www.w3.org/2000/svg" xmlns:xlink="http://www.w3.org/1999/xlink">
<g id="graph0" class="graph" transform="scale(1 1) rotate(0) translate(4 94.5)">
<title>ekisocket::ws::Client::Impl::~Impl</title>
<polygon fill="white" stroke="transparent" points="-4,4 -4,-94.5 251,-94.5 251,4 -4,4"/>
<!-- Node1 -->
<g id="node1" class="node">
<title>Node1</title>
<g id="a_node1"><a xlink:title=" ">
<polygon fill="#bfbfbf" stroke="black" points="0,-33 0,-63 105,-63 105,-33 0,-33"/>
<text text-anchor="start" x="8" y="-51" font-family="Helvetica,sans-Serif" font-size="10.00">ekisocket::ws::Client</text>
<text text-anchor="middle" x="52.5" y="-40" font-family="Helvetica,sans-Serif" font-size="10.00">::Impl::~Impl</text>
</a>
</g>
</g>
<!-- Node2 -->
<g id="node2" class="node">
<title>Node2</title>
<g id="a_node2"><a xlink:href="structekisocket_1_1ws_1_1_client_1_1_impl.html#a91659763228a446632a3de5f3ac9d025" target="_top" xlink:title=" ">
<polygon fill="white" stroke="black" points="141.5,-60 141.5,-90 246.5,-90 246.5,-60 141.5,-60"/>
<text text-anchor="start" x="149.5" y="-78" font-family="Helvetica,sans-Serif" font-size="10.00">ekisocket::ws::Client</text>
<text text-anchor="middle" x="194" y="-67" font-family="Helvetica,sans-Serif" font-size="10.00">::Impl::close</text>
</a>
</g>
</g>
<!-- Node1&#45;&gt;Node2 -->
<g id="edge1" class="edge">
<title>Node1&#45;&gt;Node2</title>
<path fill="none" stroke="midnightblue" d="M105.05,-57.98C113.62,-59.64 122.59,-61.37 131.38,-63.07"/>
<polygon fill="midnightblue" stroke="midnightblue" points="130.71,-66.51 141.2,-64.97 132.05,-59.64 130.71,-66.51"/>
</g>
<!-- Node3 -->
<g id="node3" class="node">
<title>Node3</title>
<g id="a_node3"><a xlink:href="structekisocket_1_1ws_1_1_client_1_1_impl.html#a2ecc5abf2663cabf3dfa250262b3747e" target="_top" xlink:title=" ">
<polygon fill="white" stroke="black" points="141,-0.5 141,-41.5 247,-41.5 247,-0.5 141,-0.5"/>
<text text-anchor="start" x="149" y="-29.5" font-family="Helvetica,sans-Serif" font-size="10.00">ekisocket::ws::Client</text>
<text text-anchor="start" x="149" y="-18.5" font-family="Helvetica,sans-Serif" font-size="10.00">::Impl::set_automatic</text>
<text text-anchor="middle" x="194" y="-7.5" font-family="Helvetica,sans-Serif" font-size="10.00">_reconnect</text>
</a>
</g>
</g>
<!-- Node1&#45;&gt;Node3 -->
<g id="edge2" class="edge">
<title>Node1&#45;&gt;Node3</title>
<path fill="none" stroke="midnightblue" d="M105.05,-38.02C113.42,-36.4 122.16,-34.71 130.75,-33.05"/>
<polygon fill="midnightblue" stroke="midnightblue" points="131.58,-36.45 140.73,-31.12 130.25,-29.58 131.58,-36.45"/>
</g>
</g>
</svg>
